[Header]
FileType HTR
DataType HTRS
FileVersion 1
NumSegments 64
NumFrames 3
DataFrameRate 24
EulerRotationOrder ZYX
CalibrationUnits mm
RotationUnits Degrees
GlobalAxisofGravity Y
BoneLengthAxis Y
ScaleFactor 1.0
[SegmentNames&Hierarchy]
Hips	GLOBAL
Spine	Hips
Spine1	Spine
Spine2	Spine1
Neck	Spine2
Head	Neck
LeftEye	Head
RightEye	Head
LeftShoulder	Spine2
LeftArm	LeftShoulder
LeftForeArm	LeftArm
LeftHand	LeftForeArm
LeftHandThumb1	LeftHand
LeftHandThumb2	LeftHandThumb1
LeftHandThumb3	LeftHandThumb2
LeftHandThumb4	LeftHandThumb3
LeftHandIndex1	LeftHand
LeftHandIndex2	LeftHandIndex1
LeftHandIndex3	LeftHandIndex2
LeftHandIndex4	LeftHandIndex3
LeftHandMiddle1	LeftHand
LeftHandMiddle2	LeftHandMiddle1
LeftHandMiddle3	LeftHandMiddle2
LeftHandMiddle4	LeftHandMiddle3
LeftHandRing1	LeftHand
LeftHandRing2	LeftHandRing1
LeftHandRing3	LeftHandRing2
LeftHandRing4	LeftHandRing3
LeftHandPinky1	LeftHand
LeftHandPinky2	LeftHandPinky1
LeftHandPinky3	LeftHandPinky2
LeftHandPinky4	LeftHandPinky3
RightShoulder	Spine2
RightArm	RightShoulder
RightForeArm	RightArm
RightHand	RightForeArm
RightHandPinky1	RightHand
RightHandPinky2	RightHandPinky1
RightHandPinky3	RightHandPinky2
RightHandPinky4	RightHandPinky3
RightHandRing1	RightHand
RightHandRing2	RightHandRing1
RightHandRing3	RightHandRing2
RightHandRing4	RightHandRing3
RightHandMiddle1	RightHand
RightHandMiddle2	RightHandMiddle1
RightHandMiddle3	RightHandMiddle2
RightHandMiddle4	RightHandMiddle3
RightHandIndex1	RightHand
RightHandIndex2	RightHandIndex1
RightHandIndex3	RightHandIndex2
RightHandIndex4	RightHandIndex3
RightHandThumb1	RightHand
RightHandThumb2	RightHandThumb1
RightHandThumb3	RightHandThumb2
RightHandThumb4	RightHandThumb3
LeftUpLeg	Hips
LeftLeg	LeftUpLeg
LeftFoot	LeftLeg
LeftToeBase	LeftFoot
RightUpLeg	Hips
RightLeg	RightUpLeg
RightFoot	RightLeg
RightToeBase	RightFoot
[BasePosition]
Hips	0	0	0	0	0	0	1
Spine	0	0	0	0	0	0	1
Spine1	0	0	0	0	0	0	1
Spine2	0	0	0	0	0	0	1
Neck	0	0	0	0	0	0	1
Head	0	0	0	0	0	0	1
LeftEye	0	0	0	0	0	0	1
RightEye	0	0	0	0	0	0	1
LeftShoulder	0	0	0	0	0	0	1
LeftArm	0	0	0	0	0	0	1
LeftForeArm	0	0	0	0	0	0	1
LeftHand	0	0	0	0	0	0	1
LeftHandThumb1	0	0	0	0	0	0	1
LeftHandThumb2	0	0	0	0	0	0	1
LeftHandThumb3	0	0	0	0	0	0	1
LeftHandThumb4	0	0	0	0	0	0	1
LeftHandIndex1	0	0	0	0	0	0	1
LeftHandIndex2	0	0	0	0	0	0	1
LeftHandIndex3	0	0	0	0	0	0	1
LeftHandIndex4	0	0	0	0	0	0	1
LeftHandMiddle1	0	0	0	0	0	0	1
LeftHandMiddle2	0	0	0	0	0	0	1
LeftHandMiddle3	0	0	0	0	0	0	1
LeftHandMiddle4	0	0	0	0	0	0	1
LeftHandRing1	0	0	0	0	0	0	1
LeftHandRing2	0	0	0	0	0	0	1
LeftHandRing3	0	0	0	0	0	0	1
LeftHandRing4	0	0	0	0	0	0	1
LeftHandPinky1	0	0	0	0	0	0	1
LeftHandPinky2	0	0	0	0	0	0	1
LeftHandPinky3	0	0	0	0	0	0	1
LeftHandPinky4	0	0	0	0	0	0	1
RightShoulder	0	0	0	0	0	0	1
RightArm	0	0	0	0	0	0	1
RightForeArm	0	0	0	0	0	0	1
RightHand	0	0	0	0	0	0	1
RightHandPinky1	0	0	0	0	0	0	1
RightHandPinky2	0	0	0	0	0	0	1
RightHandPinky3	0	0	0	0	0	0	1
RightHandPinky4	0	0	0	0	0	0	1
RightHandRing1	0	0	0	0	0	0	1
RightHandRing2	0	0	0	0	0	0	1
RightHandRing3	0	0	0	0	0	0	1
RightHandRing4	0	0	0	0	0	0	1
RightHandMiddle1	0	0	0	0	0	0	1
RightHandMiddle2	0	0	0	0	0	0	1
RightHandMiddle3	0	0	0	0	0	0	1
RightHandMiddle4	0	0	0	0	0	0	1
RightHandIndex1	0	0	0	0	0	0	1
RightHandIndex2	0	0	0	0	0	0	1
RightHandIndex3	0	0	0	0	0	0	1
RightHandIndex4	0	0	0	0	0	0	1
RightHandThumb1	0	0	0	0	0	0	1
RightHandThumb2	0	0	0	0	0	0	1
RightHandThumb3	0	0	0	0	0	0	1
RightHandThumb4	0	0	0	0	0	0	1
LeftUpLeg	0	0	0	0	0	0	1
LeftLeg	0	0	0	0	0	0	1
LeftFoot	0	0	0	0	0	0	1
LeftToeBase	0	0	0	0	0	0	1
RightUpLeg	0	0	0	0	0	0	1
RightLeg	0	0	0	0	0	0	1
RightFoot	0	0	0	0	0	0	1
RightToeBase	0	0	0	0	0	0	1
[Hips]
18	1238.9552	957.8747559	15.72757721	24.47594833	80.94599915	18.86102867	1.0
19	1312.801392	936.8659668	14.27420521	37.25614166	83.32460022	31.55415344	1.0
20	1390.56958	923.940918	12.83857918	22.04718971	83.419487	15.93583775	1.0
[Spine]
18	0	101.8159943	1.315000057	4.711049557	-19.36717224	-0.5917596817	1.0
19	0	101.8159943	1.315000057	5.008159637	-21.58375168	-0.5447198153	1.0
20	0	101.8159943	1.315000057	4.53475666	-21.25595284	1.475375772	1.0
[Spine1]
18	0	100.8349991	-10.00800037	3.106319666	-6.999540806	0.2439419329	1.0
19	0	100.8349991	-10.00800037	3.292367458	-7.293555737	0.3476694822	1.0
20	0	100.8349991	-10.00800037	3.290806055	-7.31482172	1.000966668	1.0
[Spine2]
18	0	91	-13.73399925	3.022716522	-7.041191578	0.3236499429	1.0
19	0	91	-13.73399925	3.200246096	-7.335821152	0.4060777724	1.0
20	0	91	-13.73399925	3.200436115	-7.349708557	1.032031775	1.0
[Neck]
18	0	166.7169952	-25.16200066	4.217995644	-5.680283546	-1.765856385	1.0
19	0	166.7169952	-25.16200066	3.900584936	-5.814254761	-1.613029718	1.0
20	0	166.7169952	-25.16200066	3.884453773	-5.780340195	-1.71536696	1.0
[Head]
18	0	96.17900085	16.84999847	-12.00805378	-34.92215347	14.17226028	1.0
19	0	96.17900085	16.84999847	-13.50987816	-35.16831207	14.68694496	1.0
20	0	96.17900085	16.84999847	-14.73304081	-34.74124908	14.11860752	1.0
[LeftEye]
18	30.6760006	64.09500122	92.83599854	0	0	0	1.0
19	30.6760006	64.09500122	92.83599854	0	0	0	1.0
20	30.6760006	64.09500122	92.83599854	0	0	0	1.0
[RightEye]
18	-30.6760006	64.09500122	92.83499908	0	0	0	1.0
19	-30.6760006	64.09500122	92.83499908	0	0	0	1.0
20	-30.6760006	64.09500122	92.83499908	0	0	0	1.0
[LeftShoulder]
18	45.70400238	109.4599991	-26.28000069	-2.879271984	-10.19727993	-9.136143684	1.0
19	45.70400238	109.4599991	-26.28000069	-2.586728811	-10.45872593	-9.429271698	1.0
20	45.70400238	109.4599991	-26.28000069	-2.156706333	-10.13869476	-9.740839005	1.0
[LeftArm]
18	105.923996	-5.24600029	-22.32099915	34.12622452	-25.00200081	-53.97829819	1.0
19	105.923996	-5.24600029	-22.32099915	37.34838104	-28.35664368	-54.78781509	1.0
20	105.923996	-5.24600029	-22.32099915	38.64208984	-30.31593323	-58.19074249	1.0
[LeftForeArm]
18	278.414978	-0.0009999999311	0	2.769174046e-07	-22.77214813	-0.0001974211918	1.0
19	278.414978	-0.0009999999311	0	-4.324495421e-06	-23.04811859	-0.000184470191	1.0
20	278.414978	-0.0009999999311	0	7.756175364e-07	-21.98054886	-0.0002096366661	1.0
[LeftHand]
18	283.2879944	0	0	-1.696778893	0.3136830926	25.25517464	1.0
19	283.2879944	0	0	-3.258583069	-2.913285494	24.01530075	1.0
20	283.2879944	0	0	-5.080798626	-6.701879978	21.54401779	1.0
[LeftHandThumb1]
18	24.6609993	-15.75	26.8239994	0.9464570284	1.151123047	0.2541034818	1.0
19	24.6609993	-15.75	26.8239994	0.9464570284	1.151123047	0.2541034818	1.0
20	24.6609993	-15.75	26.8239994	0.9464570284	1.151123047	0.2541034818	1.0
[LeftHandThumb2]
18	32.29800034	-18.64699936	18.64699936	8.703655243	1.91866219	18.58163261	1.0
19	32.29800034	-18.64699936	18.64699936	11.23237038	0.9699054956	17.59373665	1.0
20	32.29800034	-18.64699936	18.64699936	15.404109	3.187142611	17.40318871	1.0
[LeftHandThumb3]
18	26.52600098	-15.31499958	15.31499958	-1.608596802	-9.530877113	21.50982475	1.0
19	26.52600098	-15.31499958	15.31499958	-2.062530994	-10.67146969	21.56188965	1.0
20	26.52600098	-15.31499958	15.31499958	-3.612805367	-14.30005741	23.04348946	1.0
[LeftHandThumb4]
18	19.54599953	-11.28499985	11.28499985	0	0	0	1.0
19	19.54599953	-11.28499985	11.28499985	0	0	0	1.0
20	19.54599953	-11.28499985	11.28499985	0	0	0	1.0
[LeftHandIndex1]
18	91.09299469	-5.170999527	22.60099792	-1.187113523	-2.5224545	-21.62694359	1.0
19	91.09299469	-5.170999527	22.60099792	-1.226065636	-1.435661077	-22.72502327	1.0
20	91.09299469	-5.170999527	22.60099792	-1.317447543	0.5661572814	-26.06722641	1.0
[LeftHandIndex2]
18	36.76399994	0	0	-0.1270841807	1.212165594	-11.97015953	1.0
19	36.76399994	0	0	-0.1273798794	1.213546991	-11.98398399	1.0
20	36.76399994	0	0	-0.128406167	1.218349457	-12.03223991	1.0
[LeftHandIndex3]
18	28.83100128	0	0	-0.1323020905	1.236481071	-12.2140398	1.0
19	28.83100128	0	0	-0.1325884759	1.237807751	-12.22736073	1.0
20	28.83100128	0	0	-0.133610934	1.242504478	-12.27441502	1.0
[LeftHandIndex4]
18	23.92700005	0	0	0	0	0	1.0
19	23.92700005	0	0	0	0	0	1.0
20	23.92700005	0	0	0	0	0	1.0
[LeftHandMiddle1]
18	95.33399963	0	0	-1.758152008	2.471373558	-28.33778954	1.0
19	95.33399963	0	0	-1.831112504	2.982484341	-29.18198586	1.0
20	95.33399963	0	0	-2.083500147	3.913085699	-32.0407486	1.0
[LeftHandMiddle2]
18	36.98199844	0	0	-0.3007562757	1.850450873	-18.46204376	1.0
19	36.98199844	0	0	-0.3019020557	1.853865027	-18.49737167	1.0
20	36.98199844	0	0	-0.3034033477	1.858345389	-18.54382133	1.0
[LeftHandMiddle3]
18	29.50900078	0	0	-0.107774362	1.117187262	-11.01977253	1.0
19	29.50900078	0	0	-0.1084595323	1.120732903	-11.05516815	1.0
20	29.50900078	0	0	-0.1093678176	1.125375271	-11.10156345	1.0
[LeftHandMiddle4]
18	28.3390007	0	0	0	0	0	1.0
19	28.3390007	0	0	0	0	0	1.0
20	28.3390007	0	0	0	0	0	1.0
[LeftHandRing1]
18	91.04499817	-0.4390000105	-18.65100098	-1.905471325	6.893992424	-30.03436852	1.0
19	91.04499817	-0.4390000105	-18.65100098	-1.945465922	6.860723495	-30.49085999	1.0
20	91.04499817	-0.4390000105	-18.65100098	-2.117289066	7.280406952	-32.43585968	1.0
[LeftHandRing2]
18	31.54000092	0	0	-0.4703806937	2.296579599	-23.14746094	1.0
19	31.54000092	0	0	-0.4648112655	2.283508539	-23.00800896	1.0
20	31.54000092	0	0	-0.4621680975	2.277284861	-22.9416275	1.0
[LeftHandRing3]
18	29.37700081	0	0	-0.3383807838	1.959474802	-19.59374619	1.0
19	29.37700081	0	0	-0.3335956633	1.945996165	-19.4533844	1.0
20	29.37700081	0	0	-0.3312616646	1.939360023	-19.38442039	1.0
[LeftHandRing4]
18	26.47500038	0	0	0	0	0	1.0
19	26.47500038	0	0	0	0	0	1.0
20	26.47500038	0	0	0	0	0	1.0
[LeftHandPinky1]
18	80.77799988	-4.887000084	-38.06099701	-2.371575594	3.652281046	-35.2067337	1.0
19	80.77799988	-4.887000084	-38.06099701	-2.412189245	3.63079071	-35.64408112	1.0
20	80.77799988	-4.887000084	-38.06099701	-2.543358088	3.678200722	-37.03974152	1.0
[LeftHandPinky2]
18	36	0	0	-0.4962869883	2.356199741	-23.78559113	1.0
19	36	0	0	-0.486997664	2.335045576	-23.55873489	1.0
20	36	0	0	-0.4793893695	2.317525148	-23.37122726	1.0
[LeftHandPinky3]
18	21.14200211	0	0	-0.2164090872	1.575543761	-15.64078712	1.0
19	21.14200211	0	0	-0.2099487334	1.552312732	-15.4043169	1.0
20	21.14200211	0	0	-0.2046938986	1.53309691	-15.20894051	1.0
[LeftHandPinky4]
18	19.75699997	0	0	0	0	0	1.0
19	19.75699997	0	0	0	0	0	1.0
20	19.75699997	0	0	0	0	0	1.0
[RightShoulder]
18	-45.70000076	109.4620056	-26.28000069	1.344951391	-7.275250435	7.410625458	1.0
19	-45.70000076	109.4620056	-26.28000069	1.279412508	-7.427722931	7.543179512	1.0
20	-45.70000076	109.4620056	-26.28000069	1.198673248	-7.014333248	8.042507172	1.0
[RightArm]
18	-105.9280014	-5.248000145	-22.32099915	14.87849045	-3.893019438	66.21478271	1.0
19	-105.9280014	-5.248000145	-22.32099915	14.09057903	-3.598407507	66.00900269	1.0
20	-105.9280014	-5.248000145	-22.32099915	14.39612103	-2.607230186	64.46147919	1.0
[RightForeArm]
18	-278.414978	0	0	-1.285135568e-05	19.59662628	6.279236914e-06	1.0
19	-278.414978	0	0	-1.086420889e-05	13.35125923	-5.227962902e-06	1.0
20	-278.414978	0	0	-2.414037681e-06	8.559879303	-2.323555464e-06	1.0
[RightHand]
18	-283.2879944	0	0.0009999999311	7.464649677	-2.478010416	-1.515816927	1.0
19	-283.2879944	0	0.0009999999311	6.608337879	-2.300025225	-1.972925663	1.0
20	-283.2879944	0	0.0009999999311	6.375840664	-2.23905611	-3.248151779	1.0
[RightHandPinky1]
18	-80.76699829	-4.885000229	-38.06000137	-1.635073304	-2.170537472	28.69485855	1.0
19	-80.76699829	-4.885000229	-38.06000137	-1.579766631	-2.335976839	27.93937302	1.0
20	-80.76699829	-4.885000229	-38.06000137	-1.541219115	-2.472902775	27.40969658	1.0
[RightHandPinky2]
18	-36	0	0.0009999999311	-0.3681747019	-1.811139226	22.99959755	1.0
19	-36	0	0.0009999999311	-0.3693687618	-1.813930988	23.03705025	1.0
20	-36	0	0.0009999999311	-0.3782764077	-1.834735513	23.31679726	1.0
[RightHandPinky3]
18	-21.14200211	0	0	-0.4205042422	-1.929836392	24.58310318	1.0
19	-21.14200211	0	0	-0.424467355	-1.938455462	24.70050049	1.0
20	-21.14200211	0	0	-0.432081908	-1.954933882	24.92456627	1.0
[RightHandPinky4]
18	-19.75699997	0	0	0	0	0	1.0
19	-19.75699997	0	0	0	0	0	1.0
20	-19.75699997	0	0	0	0	0	1.0
[RightHandRing1]
18	-91.03599548	-0.4390000105	-18.65100098	-1.878744245	-2.730939388	32.11266327	1.0
19	-91.03599548	-0.4390000105	-18.65100098	-1.817245126	-2.886404037	31.30824661	1.0
20	-91.03599548	-0.4390000105	-18.65100098	-1.806558371	-2.895421982	31.16810608	1.0
[RightHandRing2]
18	-31.54000092	0	0	-0.6814376712	-2.419854164	31.45056152	1.0
19	-31.54000092	0	0	-0.6755350232	-2.41018033	31.31025314	1.0
20	-31.54000092	0	0	-0.6745063066	-2.408507109	31.28588676	1.0
[RightHandRing3]
18	-29.37700081	0	0	-0.7581585646	-2.540937185	33.22311401	1.0
19	-29.37700081	0	0	-0.7518627048	-2.531300306	33.08084869	1.0
20	-29.37700081	0	0	-0.7507727742	-2.529633522	33.05617523	1.0
[RightHandRing4]
18	-26.47500038	0	0	0	0	0	1.0
19	-26.47500038	0	0	0	0	0	1.0
20	-26.47500038	0	0	0	0	0	1.0
[RightHandMiddle1]
18	-95.32500458	0	0	-2.135427237	-1.581582665	35.41470718	1.0
19	-95.32500458	0	0	-2.063203096	-1.801705122	34.49806213	1.0
20	-95.32500458	0	0	-2.034950018	-1.952364802	34.13669968	1.0
[RightHandMiddle2]
18	-36.98199844	0	0	-0.456836015	-2.007323742	25.64078522	1.0
19	-36.98199844	0	0	-0.4488528967	-1.990601182	25.41185379	1.0
20	-36.98199844	0	0	-0.4457535148	-1.984015226	25.32193184	1.0
[RightHandMiddle3]
18	-29.50900078	0	0	-0.3211878538	-1.698124051	21.44451332	1.0
19	-29.50900078	0	0	-0.3143782616	-1.680693984	21.21300888	1.0
20	-29.50900078	0	0	-0.3117159903	-1.673825741	21.12196159	1.0
[RightHandMiddle4]
18	-28.3390007	0	0.0009999999311	0	0	0	1.0
19	-28.3390007	0	0.0009999999311	0	0	0	1.0
20	-28.3390007	0	0.0009999999311	0	0	0	1.0
[RightHandIndex1]
18	-91.08300018	-5.167999744	22.60099792	-1.097189903	6.497178078	22.85362816	1.0
19	-91.08300018	-5.167999744	22.60099792	-1.05002594	6.375777721	22.39137268	1.0
20	-91.08300018	-5.167999744	22.60099792	-1.059455872	6.234204292	22.69207764	1.0
[RightHandIndex2]
18	-36.76399994	0	0	-0.5706681609	-2.22882843	28.71980858	1.0
19	-36.76399994	0	0	-0.5668023825	-2.221752405	28.62019157	1.0
20	-36.76399994	0	0	-0.5655794144	-2.219518423	28.58881187	1.0
[RightHandIndex3]
18	-28.83100128	0	0	-0.2349387109	-1.457651258	18.31096268	1.0
19	-28.83100128	0	0	-0.2323958874	-1.449927807	18.21040916	1.0
20	-28.83100128	0	0	-0.2315867245	-1.44749701	18.17869568	1.0
[RightHandIndex4]
18	-23.92700005	0	0	0	0	0	1.0
19	-23.92700005	0	0	0	0	0	1.0
20	-23.92700005	0	0	0	0	0	1.0
[RightHandThumb1]
18	-24.64799881	-15.72700024	26.82600021	30.15343666	21.14214134	-10.25145817	1.0
19	-24.64799881	-15.72700024	26.82600021	30.15343666	21.14214134	-10.25145817	1.0
20	-24.64799881	-15.72700024	26.82600021	30.15343666	21.14214134	-10.25145817	1.0
[RightHandThumb2]
18	-32.29800034	-18.64699936	18.64699936	12.50326252	-22.43821526	1.212262869	1.0
19	-32.29800034	-18.64699936	18.64699936	12.9673233	-22.20659828	1.429615617	1.0
20	-32.29800034	-18.64699936	18.64699936	13.39108562	-23.15241814	1.627438188	1.0
[RightHandThumb3]
18	-26.52600098	-15.31399918	15.31399918	-11.88650036	-13.58106804	-10.3547678	1.0
19	-26.52600098	-15.31399918	15.31399918	-11.90207386	-13.54522419	-10.36465645	1.0
20	-26.52600098	-15.31399918	15.31399918	-11.91870403	-13.50667763	-10.37530231	1.0
[RightHandThumb4]
18	-19.54599953	-11.28499985	11.28499985	0	0	0	1.0
19	-19.54599953	-11.28499985	11.28499985	0	0	0	1.0
20	-19.54599953	-11.28499985	11.28499985	0	0	0	1.0
[LeftUpLeg]
18	82.07800293	-67.51699829	-15.99599934	3.374003649	9.573846817	-5.950064182	1.0
19	82.07800293	-67.51699829	-15.99599934	8.822532654	10.76449299	-4.452432156	1.0
20	82.07800293	-67.51699829	-15.99599934	14.2413044	12.18787384	-1.826494932	1.0
[LeftLeg]
18	0	-443.7049866	2.845999956	20.65288734	-7.433749199	-3.867523432	1.0
19	0	-443.7049866	2.845999956	19.77297592	-7.514535427	-4.059504986	1.0
20	0	-443.7049866	2.845999956	17.71357918	-7.694369793	-3.969967365	1.0
[LeftFoot]
18	0	-444.2789917	-29.8219986	-30.28021431	-9.683960915	16.63720703	1.0
19	0	-444.2789917	-29.8219986	-31.74085999	-14.00012207	19.31220627	1.0
20	0	-444.2789917	-29.8219986	-24.71984482	-16.6710701	19.62033653	1.0
[LeftToeBase]
18	0	-87.28699493	107.1060028	-8.488459587	2.949087866e-05	1.271412657e-06	1.0
19	0	-87.28699493	107.1060028	-10.01507378	-1.662537761e-05	3.227488676e-08	1.0
20	0	-87.28699493	107.1060028	-16.77930069	1.060985323e-05	-4.423046448e-06	1.0
[RightUpLeg]
18	-82.07800293	-67.51699829	-15.99599934	-42.35183334	-3.166894913	-0.4741431773	1.0
19	-82.07800293	-67.51699829	-15.99599934	-46.27531052	-3.065058231	-1.042207837	1.0
20	-82.07800293	-67.51699829	-15.99599934	-46.13754654	-0.04807863012	1.306823254	1.0
[RightLeg]
18	0	-443.7049866	2.861999989	8.850556374	-4.237676144	-1.000632882	1.0
19	0	-443.7049866	2.861999989	16.01567841	-5.458341599	-2.094296932	1.0
20	0	-443.7049866	2.861999989	19.15651703	-8.942137718	-3.725331545	1.0
[RightFoot]
18	0	-444.2770081	-29.83799934	-12.13323021	1.042539001	10.94785404	1.0
19	0	-444.2770081	-29.83799934	-10.31472492	0.5829937458	7.436742783	1.0
20	0	-444.2770081	-29.83799934	14.07051945	-0.06599988043	-5.425418377	1.0
[RightToeBase]
18	0	-87.28699493	107.1060028	-7.175875664	1.172376415e-06	8.996561519e-06	1.0
19	0	-87.28699493	107.1060028	-9.371202469	2.132244481e-05	-1.636613888e-06	1.0
20	0	-87.28699493	107.1060028	-13.08995056	-2.740032505e-05	1.698084134e-06	1.0
[EndOfFile]
